<svg width="266" height="93" viewBox="0 0 266 93" fill="none" xmlns="http://www.w3.org/2000/svg">
<path d="M10.4285 57.6047C12.2775 57.5732 14.1201 57.8302 15.8904 58.3666C17.9342 58.8944 19.9421 59.5663 21.9559 60.1662C22.5117 60.3461 23.0734 60.4901 23.6351 60.646C23.6693 60.6558 23.7055 60.6567 23.7401 60.6485C23.7747 60.6404 23.8067 60.6235 23.833 60.5995C23.8594 60.5754 23.8791 60.5451 23.8905 60.5112C23.9019 60.4774 23.9045 60.4412 23.898 60.4061C23.8144 60.1302 23.7247 59.8482 23.6172 59.5783C22.8472 57.6374 22.2571 55.6293 21.8543 53.5797C21.6873 52.68 21.6152 51.7651 21.6392 50.8503C21.6392 50.0105 21.6392 49.1647 21.6392 48.3189C21.6426 47.6988 21.7026 47.0804 21.8185 46.4713C22.2805 43.7973 23.2458 41.2362 24.6629 38.925C25.6661 37.2241 26.8855 35.6613 28.2903 34.2761C29.7895 32.8221 31.5802 31.7056 33.543 31.0009C34.3721 30.7253 35.216 30.497 36.0708 30.317C36.2122 30.2862 36.3564 30.2702 36.501 30.269C37.8576 30.269 39.2081 30.227 40.5586 30.269C41.2102 30.3168 41.8585 30.4009 42.5008 30.521C43.8274 30.7249 45.1421 30.9949 46.4807 31.1568C47.9866 31.3428 49.4686 31.7147 50.9804 31.9426C51.8768 32.0746 52.7732 32.1466 53.6815 32.2846C54.7273 32.4438 55.7871 32.4901 56.8427 32.4225C58.8745 32.2906 60.9063 32.0566 62.7588 31.0848C64.2227 30.3123 65.4327 29.1311 66.2427 27.6836C66.3323 27.5277 66.404 27.3597 66.4877 27.1977C66.5386 27.0914 66.6102 26.9964 66.6982 26.9181C66.7861 26.8399 66.8887 26.78 67 26.742C67.1113 26.704 67.229 26.6887 67.3462 26.6969C67.4635 26.7051 67.5779 26.7367 67.6829 26.7898C67.7293 26.8132 67.7703 26.8461 67.8033 26.8864C67.8362 26.9267 67.8603 26.9735 67.8741 27.0238C67.9509 27.3456 67.9343 27.6828 67.8263 27.9955C67.3711 29.6647 66.4725 31.1783 65.2268 32.3745C64.4296 33.1298 63.4885 33.7155 62.46 34.0962C61.5961 34.3801 60.7185 34.6203 59.8306 34.816C59.6132 34.8501 59.3934 34.8661 59.1733 34.864C58.8088 34.864 58.4443 34.864 58.0797 34.864C56.1109 34.9209 54.1452 34.67 52.2533 34.1201C50.9147 33.7782 49.6 33.3343 48.2794 32.9204C47.126 32.5665 45.9787 32.2006 44.8313 31.8527C44.6555 31.8095 44.4742 31.7933 44.2935 31.8047C44.1919 31.8047 44.0724 31.8946 44.1023 32.0206C44.179 32.3407 44.2768 32.6553 44.3951 32.9624C45.1444 34.8668 45.7321 36.8313 46.152 38.8351C46.5233 40.6342 46.598 42.4824 46.3731 44.3058C46.1342 46.4125 45.6116 48.4769 44.8194 50.4424C44.0443 52.4212 42.9831 54.2746 41.6701 55.9431C39.507 58.8392 36.436 60.9204 32.9514 61.8518C32.8797 61.8518 32.814 61.8998 32.7422 61.9118C30.9743 62.1762 29.183 62.2466 27.3999 62.1217C25.9537 61.9957 24.5255 61.6778 23.0973 61.4379C21.9499 61.2399 20.8145 61.0239 19.6672 60.838C18.4182 60.622 17.1633 60.4241 15.9084 60.2381C15.7273 60.2262 15.5456 60.2262 15.3646 60.2381C14.7099 60.2281 14.0567 60.1699 13.4105 60.0642C12.6492 59.9691 11.88 59.955 11.1158 60.0222C9.51438 60.0522 7.92596 60.3169 6.40085 60.808C5.3702 61.1361 4.41583 61.669 3.59454 62.3749C2.77324 63.0808 2.10181 63.9453 1.62019 64.9171L1.46482 65.211C1.18993 65.6969 1.13017 65.7209 0.604301 65.5589C-0.0709662 65.343 -0.0709632 65.343 0.084408 64.6471C0.385888 63.4028 0.925781 62.2292 1.67397 61.1919C2.35949 60.2397 3.24221 59.4478 4.2615 58.8704C5.11781 58.384 6.03965 58.0244 6.99843 57.8027C8.13146 57.6138 9.28141 57.5474 10.4285 57.6047ZM27.7584 45.9014H27.7943C27.7943 46.7772 27.7405 47.665 27.7943 48.5348C27.8768 49.2949 28.0106 50.0484 28.1947 50.7903C28.4431 51.9709 28.7644 53.1349 29.1568 54.2755C29.8099 56.0245 30.5827 57.7262 31.4694 59.3683C31.6726 59.7582 31.9056 60.1301 32.1447 60.4961C32.3837 60.862 32.5092 60.946 32.9395 60.73C34.7821 59.8182 36.3359 58.4101 37.4273 56.663C38.0373 55.7073 38.5498 54.6924 38.9571 53.6336C39.734 51.5858 40.1681 49.4231 40.2419 47.2331C40.2807 46.1741 40.2207 45.1137 40.0626 44.0659C39.8638 42.5105 39.54 40.9739 39.0945 39.4709C38.666 38.0395 38.147 36.637 37.5408 35.2719C37.0389 34.1741 36.4831 33.1004 35.9333 32.0206C35.9024 31.9442 35.8561 31.875 35.7973 31.8173C35.7386 31.7597 35.6686 31.7148 35.5917 31.6855C35.5149 31.6562 35.4329 31.6432 35.3508 31.6472C35.2687 31.6512 35.1883 31.6721 35.1147 31.7087C35.0128 31.7449 34.9147 31.7911 34.8218 31.8467C32.0528 33.4631 29.9456 36.0142 28.8759 39.045C28.1831 40.8132 27.801 42.6885 27.7465 44.5877C27.7704 45.0196 27.7763 45.4575 27.7763 45.9014H27.7584Z" fill="white"/>
<path d="M41.6582 29.1953C41.0247 28.9133 40.1941 29.0873 39.4232 28.8714C39.07 28.7704 38.7005 28.7399 38.3356 28.7814C37.505 28.8654 36.6803 28.9973 35.8557 29.1053L35.2103 29.2013C34.9072 29.2653 34.5915 29.2242 34.3147 29.0847C34.0379 28.9452 33.8164 28.7157 33.6864 28.4335C32.2343 26.106 30.7404 23.8145 29.2464 21.5171C27.2923 18.5177 25.3203 15.5184 23.3602 12.5191C22.918 11.8473 22.4997 11.1634 22.0575 10.4916C21.932 10.2936 21.7587 10.3176 21.6332 10.5216C21.5702 10.612 21.5162 10.7085 21.4719 10.8095L19.8584 14.4087C19.7867 14.5766 19.7209 14.7446 19.6433 14.9126C19.0038 16.2683 18.3465 17.6179 17.725 18.9856C16.7689 21.0852 15.8486 23.1847 14.8985 25.2962C14.3726 26.4659 13.8168 27.6176 13.285 28.7874C12.6874 30.1491 12.0898 31.5227 11.4444 32.8904C11.3847 33.0224 11.3249 33.1544 11.2592 33.2863C10.4285 34.918 9.71145 36.6036 8.97642 38.2772C8.4625 39.4769 7.90078 40.6047 7.36296 41.7684C6.76537 43.0281 6.16779 44.2878 5.63594 45.5655C5.59096 45.7424 5.48693 45.8984 5.34121 46.0075C5.19548 46.1167 5.01688 46.1724 4.83518 46.1654H0.652109C0.425028 46.1654 0.209897 46.1054 0.156115 45.8355C0.118722 45.6915 0.135926 45.5388 0.204388 45.4069C0.27285 45.275 0.38769 45.1733 0.526617 45.1216C0.974804 44.9776 1.43494 44.8397 1.89508 44.7377C2.49965 44.5672 3.06438 44.2777 3.55636 43.8859C4.03857 43.5522 4.42743 43.0999 4.68579 42.5722C5.82119 40.2727 6.9068 37.9513 7.94261 35.6078C8.42067 34.5401 8.9585 33.4963 9.41863 32.4165C10.1835 30.617 11.0321 28.8894 11.809 27.1198C12.8667 24.7203 13.8945 22.3629 14.9343 19.9814C15.7311 18.2058 16.506 16.4302 17.2589 14.6546C18.2509 12.3752 19.2369 10.0897 20.2468 7.8162C20.7488 6.67646 21.2986 5.56071 21.8125 4.42697C22.422 3.09527 23.0196 1.76358 23.6052 0.431883C23.6072 0.395918 23.6072 0.359878 23.6052 0.323912C23.6949 0.16195 23.7905 0 24.0056 0C24.0783 0.0007426 24.1493 0.0219262 24.2106 0.0611615C24.2718 0.100397 24.3209 0.156107 24.3522 0.221946C24.7406 0.821808 25.147 1.45165 25.5115 2.08751C26.4975 3.79712 27.5732 5.45274 28.6309 7.11436C29.9037 9.12389 31.1168 11.1634 32.3718 13.179C32.9693 14.1147 33.5669 15.0205 34.1645 15.9503C35.4015 17.9359 36.6146 19.9334 37.8456 21.949C38.3057 22.6928 38.7838 23.4306 39.2559 24.1684L41.939 28.4394C41.9959 28.5336 42.0459 28.6319 42.0884 28.7334C42.2558 29.0153 42.1303 29.2073 41.6582 29.1953Z" fill="white"/>
<path d="M43.7139 92.1148C43.624 92.0727 43.5459 92.0088 43.4868 91.9289C42.9251 91.0711 42.3753 90.2132 41.8375 89.3434C40.8335 87.7298 39.8475 86.1042 38.8495 84.4906C37.5767 82.439 36.3098 80.3935 35.031 78.348C34.0868 76.8303 33.1247 75.3187 32.1746 73.801C31.1467 72.1574 30.1368 70.5078 29.103 68.8702C28.1349 67.3225 27.1588 65.7789 26.1748 64.2392C26.0374 64.0233 25.888 63.8133 25.7625 63.5914C25.7351 63.5482 25.7168 63.4999 25.7085 63.4493C25.7003 63.3988 25.7024 63.3471 25.7147 63.2974C25.7505 63.2375 25.9059 63.2195 26.0015 63.2315C27.2179 63.4425 28.4485 63.5608 29.6826 63.5854C30.8093 63.5469 31.9317 63.4266 33.041 63.2255C33.1467 63.2019 33.2566 63.2049 33.3608 63.2342C33.4651 63.2635 33.5605 63.3182 33.6386 63.3934C33.8728 63.6221 34.074 63.8826 34.2362 64.1672C37.993 69.8299 41.7558 75.4886 45.5245 81.1433C45.6679 81.3593 45.8114 81.5692 45.9608 81.7432C46.1102 81.9172 46.3014 81.9951 46.4508 81.7432C46.6002 81.4913 46.6659 81.3593 46.7555 81.1433C47.2575 80.0036 47.7475 78.8639 48.2495 77.7241C48.5901 76.9563 48.9248 76.1885 49.2773 75.4207C49.845 74.1909 50.4426 72.9792 50.9984 71.7435C51.7872 69.9739 52.5461 68.1863 53.3349 66.4167C53.7234 65.5529 54.1596 64.7071 54.5301 63.8253C55.038 62.6256 55.6416 61.4259 56.1854 60.2262C56.9921 58.4266 57.775 56.627 58.5757 54.8274C58.9642 53.9576 59.4064 53.1178 59.7709 52.236C60.2669 51.0363 60.8704 49.8365 61.4202 48.6368C61.7071 48.009 61.9879 47.3731 62.2628 46.7293C62.3235 46.5391 62.4474 46.3757 62.6139 46.2665C62.7804 46.1573 62.9793 46.1089 63.1771 46.1294C64.5336 46.1594 65.8841 46.1294 67.2347 46.1294C67.3442 46.1233 67.4539 46.1233 67.5634 46.1294C67.6179 46.1317 67.6712 46.1469 67.7188 46.1737C67.7664 46.2006 67.807 46.2384 67.8372 46.284C67.8675 46.3296 67.8867 46.3818 67.8931 46.4362C67.8995 46.4906 67.893 46.5458 67.8741 46.5973C67.8255 46.7947 67.7222 46.9744 67.5763 47.1155C67.4304 47.2567 67.2478 47.3536 67.0494 47.3951C66.4147 47.5674 65.8013 47.8109 65.2208 48.1209C64.2495 48.6422 63.4548 49.442 62.9381 50.4184C62.1552 51.9061 61.4919 53.4537 60.8465 55.0073C60.4342 55.9851 59.9621 56.9389 59.5319 57.9107C58.6355 59.9142 57.7391 61.9178 56.8547 63.9093C56.4364 64.8451 56.0001 65.7689 55.5818 66.7047C54.6855 68.7082 53.7891 70.7177 52.9047 72.7033C52.4864 73.6391 52.0501 74.5629 51.6318 75.4986C50.7354 77.5022 49.8391 79.5057 48.9547 81.4973C48.5363 82.433 48.1001 83.3628 47.6818 84.2986C46.7854 86.3022 45.8891 88.3057 45.0046 90.2972C44.7656 90.8311 44.4847 91.347 44.2099 91.8629C44.1322 92.1148 44.0067 92.1928 43.7139 92.1148Z" fill="white"/>
<path d="M98.2372 56.0751H94.7294C94.511 56.0811 94.2926 56.063 94.0781 56.0211C94.0283 56.0038 93.984 55.9732 93.9501 55.9328C93.9161 55.8923 93.8936 55.8434 93.8851 55.7912C93.8765 55.7389 93.8821 55.6854 93.9014 55.6361C93.9206 55.5868 93.9528 55.5437 93.9944 55.5112C94.317 55.3392 94.6705 55.2332 95.0342 55.1993C95.9425 55.1993 96.325 54.5574 96.2294 53.5977C96.2034 53.4541 96.1634 53.3134 96.1098 53.1778C95.6318 51.7921 95.0282 50.4664 94.4306 49.1287C94.3684 48.9569 94.2516 48.8104 94.0983 48.7118C93.9449 48.6132 93.7636 48.5679 93.5821 48.5828C91.0244 48.5828 88.4668 48.5828 85.9091 48.5828C85.7135 48.5573 85.5152 48.604 85.3514 48.7144C85.1875 48.8248 85.0693 48.9912 85.0187 49.1827C84.5885 50.3824 84.0925 51.5821 83.6264 52.7819C83.4426 53.2654 83.4195 53.7957 83.5606 54.2935C83.6214 54.5268 83.7509 54.7364 83.9321 54.8947C84.1133 55.0531 84.3379 55.153 84.5765 55.1813C84.8335 55.2173 85.0904 55.1813 85.3414 55.2233C85.4339 55.2294 85.5206 55.2706 85.5839 55.3386C85.6471 55.4066 85.6822 55.4962 85.682 55.5892C85.6904 55.6439 85.6875 55.6997 85.6734 55.7532C85.6593 55.8066 85.6344 55.8566 85.6002 55.9C85.5659 55.9433 85.5232 55.9791 85.4745 56.0051C85.4259 56.0311 85.3725 56.0468 85.3175 56.0511C85.1382 56.0511 84.953 56.0511 84.7737 56.0511H79.7301C79.5115 56.0555 79.293 56.0354 79.0788 55.9911C78.9875 55.9723 78.9064 55.9202 78.8513 55.8448C78.7961 55.7695 78.7707 55.6763 78.78 55.5832C78.7909 55.5106 78.8202 55.4422 78.8653 55.3844C78.9103 55.3266 78.9694 55.2814 79.0369 55.2533C79.0683 55.2351 79.1027 55.2229 79.1385 55.2173C80.0827 55.1453 80.6145 54.5334 81.0807 53.7896C81.5028 53.1019 81.8743 52.3842 82.1922 51.6421C83.1065 49.5306 83.9849 47.3951 84.8633 45.2776C85.3713 44.0778 85.8972 42.8781 86.4171 41.6424C86.937 40.4067 87.3911 39.3569 87.8752 38.2172C88.419 36.9335 88.9508 35.6558 89.4886 34.3721L89.9129 33.3643C89.9667 33.2263 90.0324 33.0944 90.0922 32.9624C90.1414 32.8231 90.2346 32.7038 90.3575 32.6226C90.4805 32.5414 90.6266 32.5027 90.7734 32.5125C90.901 32.5239 91.0215 32.5761 91.1172 32.6614C91.213 32.7467 91.2789 32.8606 91.3053 32.9864C91.5121 33.5343 91.7475 34.0709 92.0104 34.594C92.6439 36.0337 93.2414 37.4854 93.8629 38.931C94.2095 39.7349 94.58 40.5327 94.9326 41.3305C95.2314 41.9963 95.5302 42.6682 95.823 43.34C96.6477 45.2116 97.4843 47.0772 98.285 48.9607C98.9484 50.5084 99.6176 52.05 100.359 53.5617C100.813 54.4795 101.381 55.1633 102.48 55.2053C102.689 55.2053 102.785 55.3792 102.791 55.5892C102.8 55.6441 102.796 55.7003 102.781 55.7538C102.766 55.8072 102.739 55.8566 102.702 55.8985C102.666 55.9403 102.62 55.9735 102.57 55.9957C102.519 56.018 102.464 56.0287 102.408 56.0271C101.972 56.0271 101.536 56.0271 101.094 56.0271L98.2372 56.0751ZM89.7157 47.0352C90.8093 47.0352 91.9029 47.0352 92.9964 47.0352C93.5343 47.0352 93.6657 46.8312 93.4745 46.3633C93.2175 45.7635 92.9486 45.1636 92.6976 44.5637C91.9646 42.8161 91.2316 41.0685 90.4986 39.3209C90.3312 38.919 90.1759 38.5111 90.0026 38.1212C89.9693 38.0577 89.914 38.0087 89.8472 37.9832C89.7217 37.9413 89.65 38.0312 89.6082 38.1332C89.4707 38.4331 89.3392 38.7331 89.2078 39.033C88.7118 40.2027 88.2098 41.3785 87.7198 42.5542L86.0525 46.5973C85.945 46.8612 86.0525 47.0412 86.3274 47.0412C87.4568 47.0412 88.5863 47.0352 89.7157 47.0352Z" fill="white"/>
<path d="M140.839 63.5494C139.811 63.623 138.779 63.5009 137.797 63.1895C137.07 62.9427 136.386 62.5824 135.771 62.1217C135.331 61.7842 135.021 61.3035 134.894 60.7618C134.768 60.2202 134.833 59.6513 135.078 59.1524C135.453 58.2291 136.099 57.4423 136.931 56.8969C137.082 56.7957 137.22 56.6769 137.343 56.543C137.803 56.0931 137.791 55.9431 137.283 55.5112C137.146 55.3913 137.02 55.2533 136.877 55.1453C136.596 54.9049 136.415 54.5667 136.372 54.1985C136.329 53.8302 136.426 53.4592 136.644 53.1598C136.819 52.9175 137.02 52.6943 137.241 52.4939C137.755 51.966 138.287 51.4622 138.789 50.9283C139.16 50.5324 139.112 50.2624 138.67 49.9385C138.55 49.8545 138.419 49.7885 138.299 49.7046C137.496 49.1616 136.879 48.3822 136.535 47.4736C136.19 46.5649 136.135 45.5715 136.375 44.6297C136.375 44.5218 136.405 44.4078 136.429 44.2998C136.637 43.3895 137.076 42.549 137.705 41.8603C138.333 41.1716 139.129 40.6584 140.014 40.3707C141.683 39.775 143.516 39.8437 145.135 40.5627C146.043 40.9432 147.02 41.1291 148.004 41.1086C148.601 41.1086 149.199 41.1086 149.761 41.1086C149.816 41.1053 149.871 41.1132 149.922 41.1319C149.974 41.1506 150.021 41.1796 150.062 41.2171C150.102 41.2547 150.134 41.3001 150.156 41.3505C150.178 41.4009 150.19 41.4553 150.191 41.5104C150.2 41.6563 150.2 41.8025 150.191 41.9484C150.191 42.5002 150.095 42.6082 149.593 42.6262C149.091 42.6442 148.572 42.6262 148.064 42.6262C147.681 42.6262 147.526 42.8481 147.687 43.2261C148.041 44.2315 148.151 45.3067 148.01 46.3633C147.964 46.9695 147.792 47.5592 147.504 48.0944C147.217 48.6296 146.821 49.0984 146.343 49.4706C145.277 50.3127 143.993 50.831 142.644 50.9643C142.461 50.9683 142.279 50.9398 142.106 50.8803C140.576 50.5624 139.811 50.8803 138.921 52.128C138.863 52.2207 138.811 52.3169 138.765 52.4159C138.716 52.4833 138.683 52.561 138.669 52.643C138.654 52.725 138.658 52.8093 138.681 52.8895C138.703 52.9697 138.743 53.0438 138.798 53.1062C138.853 53.1686 138.922 53.2177 138.998 53.2498C139.369 53.4906 139.8 53.6235 140.241 53.6337C141.12 53.5797 141.956 53.9336 142.847 53.8736C143.737 53.8136 144.598 53.8736 145.476 53.8736C146.577 53.8607 147.655 54.1874 148.566 54.8094C149.115 55.2598 149.527 55.8568 149.753 56.5318C149.979 57.2068 150.011 57.9323 149.844 58.6245C149.472 59.8274 148.686 60.8584 147.627 61.5338C146.558 62.3034 145.351 62.8594 144.072 63.1715C143.022 63.474 141.93 63.6016 140.839 63.5494ZM142.434 61.5698C143.6 61.6042 144.764 61.4523 145.882 61.1199C146.848 60.8869 147.715 60.3511 148.356 59.5903C148.668 59.1817 148.849 58.6883 148.876 58.1746C148.889 58.0681 148.881 57.9599 148.851 57.8568C148.821 57.7537 148.771 57.6577 148.703 57.5748C148.574 57.3726 148.405 57.1991 148.207 57.065C148.008 56.9309 147.785 56.839 147.55 56.7949C146.755 56.729 145.984 56.501 145.159 56.513C143.377 56.6416 141.586 56.5591 139.823 56.2671C139.568 56.1824 139.291 56.1866 139.039 56.2792C138.786 56.3717 138.572 56.5471 138.431 56.7769C137.926 57.3575 137.553 58.0411 137.337 58.7805C137.289 58.9552 137.289 59.1396 137.337 59.3144C137.396 59.6206 137.525 59.9089 137.714 60.1566C137.902 60.4044 138.146 60.6047 138.425 60.742C138.751 60.9028 139.086 61.045 139.429 61.1679C140.396 61.4923 141.416 61.6287 142.434 61.5698ZM145.183 46.4293C145.214 45.9319 145.186 45.4324 145.1 44.9417C144.883 44.1678 144.593 43.4165 144.233 42.6982C144.013 42.1711 143.63 41.7291 143.14 41.4374C142.651 41.1458 142.08 41.0199 141.514 41.0785C141.149 41.0945 140.794 41.2016 140.481 41.3902C140.168 41.5787 139.907 41.8428 139.721 42.1583C139.465 42.5606 139.311 43.02 139.273 43.496C139.098 45.0276 139.34 46.5781 139.972 47.983C140.136 48.3961 140.384 48.77 140.701 49.0802C141.018 49.3903 141.397 49.6296 141.813 49.7826C142.352 50.0169 142.959 50.0383 143.513 49.8425C144.067 49.6468 144.527 49.2483 144.801 48.7268C145.135 48.0103 145.267 47.2158 145.183 46.4293Z" fill="white"/>
<path d="M245.416 41.2225C245.416 39.4529 245.416 37.8033 245.416 36.1537C245.416 35.0799 244.902 34.4741 244.041 34.3001C243.79 34.2521 243.527 34.2641 243.276 34.2341C243.223 34.2341 243.163 34.1441 243.133 34.0902C243.103 34.0362 243.133 33.8742 243.217 33.7962C243.446 33.6124 243.725 33.4999 244.017 33.4723C245.234 33.1972 246.431 32.8446 247.603 32.4165C248.147 32.2186 248.338 32.4165 248.457 32.9204C248.514 33.2813 248.532 33.6474 248.511 34.0122C248.511 40.0348 248.511 46.0554 248.511 52.074C248.511 52.368 248.511 52.6739 248.511 52.9558C248.516 53.1962 248.613 53.4255 248.782 53.5955C248.952 53.7655 249.18 53.863 249.419 53.8676C249.712 53.8676 250.017 53.8676 250.298 53.8676C250.371 53.863 250.443 53.8821 250.505 53.9221C250.566 53.962 250.613 54.0208 250.639 54.0896C250.671 54.1769 250.673 54.2727 250.643 54.3611C250.614 54.4495 250.555 54.5251 250.477 54.5755C250.23 54.7258 249.967 54.8504 249.694 54.9474C248.935 55.2173 248.171 55.4573 247.412 55.7212C247.035 55.8532 246.665 56.0151 246.294 56.1591C245.697 56.381 245.469 56.2311 245.44 55.6192C245.44 55.4392 245.44 55.2533 245.44 55.0733V54.5455C245.117 54.3595 244.991 54.6175 244.878 54.7554C243.892 55.9551 242.488 56.2971 241.077 56.435C240.198 56.467 239.325 56.2772 238.538 55.8831C237.724 55.5478 236.994 55.0362 236.4 54.385C235.806 53.7339 235.363 52.9591 235.101 52.116C234.723 51.01 234.512 49.8535 234.474 48.6848C234.475 47.6238 234.657 46.5708 235.012 45.5715C235.451 44.1667 236.236 42.8957 237.295 41.8764C238.181 40.9917 239.294 40.3691 240.51 40.0768C241.617 39.7844 242.791 39.8927 243.826 40.3827L245.416 41.2225ZM245.416 48.4209C245.416 47.2211 245.416 46.0214 245.416 44.7917C245.4 43.9047 245.091 43.0481 244.537 42.3563C243.605 41.1565 242.308 40.8926 240.898 41.2165C240.47 41.3107 240.065 41.4904 239.708 41.745C239.351 41.9995 239.048 42.3237 238.818 42.6982C237.998 44.1274 237.548 45.7402 237.51 47.3891C237.518 48.156 237.606 48.92 237.773 49.6686C237.902 51.1441 238.583 52.5158 239.679 53.5077C240.209 54.0189 240.877 54.3638 241.6 54.5002C242.322 54.6366 243.069 54.5585 243.748 54.2755C244.252 54.1026 244.687 53.7709 244.987 53.3298C245.288 52.8887 245.438 52.362 245.416 51.8281C245.428 50.6704 245.422 49.5306 245.422 48.3969L245.416 48.4209Z" fill="white"/>
<path d="M107.147 42.3203C107.404 42.0803 107.631 41.9004 107.822 41.6844C108.498 40.9539 109.366 40.4316 110.326 40.1788C111.274 39.8998 112.282 39.8998 113.231 40.1788C114.149 40.4341 114.993 40.9082 115.69 41.561C116.387 42.2137 116.917 43.0256 117.234 43.9279C117.861 45.4176 118.098 47.0435 117.922 48.6509C117.746 50.2583 117.164 51.7939 116.23 53.1118C115.607 53.9688 114.826 54.6978 113.93 55.2593C113.091 55.7731 112.162 56.1212 111.193 56.2851C110.79 56.3259 110.391 56.394 109.998 56.489C109.86 56.5377 109.711 56.5481 109.567 56.519C108.791 56.327 107.972 56.381 107.177 56.1291C106.44 55.9309 105.718 55.6762 105.02 55.3673C104.652 55.2053 104.343 54.9324 104.136 54.5863C103.929 54.2401 103.835 53.838 103.866 53.4357C103.866 50.8683 103.866 48.3009 103.866 45.7395V36.1537C103.866 34.744 103.801 34.666 102.414 34.2821C102.276 34.2472 102.14 34.2031 102.008 34.1502C101.912 34.1022 101.9 33.8142 102.008 33.7602C102.162 33.668 102.327 33.5935 102.498 33.5383C103.785 33.1384 105.074 32.7525 106.364 32.3806C106.741 32.2666 106.914 32.3805 106.932 32.7885C106.932 33.0824 106.932 33.3883 106.932 33.6643V41.6964C106.92 41.8099 106.933 41.9245 106.971 42.0323C107.008 42.1401 107.068 42.2384 107.147 42.3203ZM110.261 55.1933C110.338 55.1933 110.41 55.1933 110.482 55.1933C111.215 55.197 111.934 54.9937 112.558 54.6065C113.181 54.2194 113.683 53.664 114.007 53.0038C114.516 51.7944 114.811 50.5055 114.88 49.1947C114.905 48.4623 114.82 47.7303 114.629 47.0232C114.484 45.8933 114.075 44.8139 113.434 43.8739C112.971 43.1661 112.277 42.6423 111.471 42.3927C110.665 42.1431 109.797 42.1832 109.018 42.5062C107.727 43.0341 106.932 43.8139 106.968 45.5055C107.016 47.905 106.968 50.3464 106.968 52.7699C106.944 53.0252 106.944 53.2823 106.968 53.5377C106.984 53.7587 107.06 53.9709 107.189 54.1509C107.318 54.3309 107.493 54.4716 107.697 54.5575C108.492 54.9624 109.369 55.1798 110.261 55.1933Z" fill="white"/>
<path d="M179.604 42.3923C179.604 45.3916 179.604 48.3909 179.604 51.4202C179.618 52.0041 179.703 52.5841 179.855 53.1478C179.892 53.3485 179.998 53.5301 180.154 53.6613C180.31 53.7926 180.506 53.8655 180.71 53.8676C181.002 53.8676 181.307 53.8676 181.588 53.8676C181.785 53.8676 181.947 53.9576 181.976 54.1735C181.988 54.2657 181.97 54.3592 181.925 54.4402C181.88 54.5213 181.81 54.5855 181.725 54.6235C181.336 54.814 180.937 54.9842 180.53 55.1333C179.494 55.4892 178.457 55.8332 177.417 56.1651C176.987 56.309 176.927 56.2431 176.748 55.8772C176.568 55.5112 176.748 54.9594 176.305 54.8514C175.863 54.7434 175.762 55.2773 175.457 55.4512C175.052 55.6941 174.623 55.895 174.178 56.0511C173.521 56.297 172.809 56.2251 172.152 56.447C171.362 56.3214 170.586 56.1206 169.834 55.8471C168.685 55.358 167.708 54.5352 167.028 53.4844C166.349 52.4337 165.998 51.203 166.021 49.9505C166.021 49.2127 166.051 48.4808 166.021 47.749C165.981 46.8313 166.143 45.9161 166.493 45.0676C167.05 43.5447 168.031 42.2143 169.32 41.2345C169.967 40.7188 170.711 40.3406 171.509 40.1231C172.306 39.9055 173.139 39.853 173.957 39.9688C174.713 40.1085 175.43 40.4092 176.06 40.8506C176.365 41.0546 176.562 40.9586 176.562 40.6047C176.562 38.883 176.562 37.1555 176.562 35.4338C176.562 34.804 176.084 34.3781 175.367 34.2341C175.116 34.1861 174.859 34.1861 174.614 34.1441C174.566 34.1441 174.513 34.0422 174.501 33.9762C174.494 33.9059 174.513 33.8356 174.554 33.7782C174.63 33.699 174.721 33.6375 174.823 33.5983C176.216 33.1724 177.608 32.7585 179.006 32.3446C179.039 32.3299 179.073 32.3179 179.108 32.3086C179.431 32.2246 179.622 32.3086 179.64 32.6505C179.658 32.9924 179.64 33.2504 179.64 33.5323L179.604 42.3923ZM176.748 48.3909C176.748 47.2931 176.748 46.1894 176.748 45.0916C176.757 44.4319 176.62 43.7783 176.347 43.1781C175.6 41.4505 173.957 40.6886 171.991 41.2885C171.434 41.4737 170.927 41.7872 170.512 42.2038C170.097 42.6204 169.785 43.1286 169.6 43.688C169.12 44.8756 168.864 46.1432 168.848 47.4251C168.854 48.3018 168.946 49.1758 169.122 50.0345C169.319 51.3909 169.993 52.6317 171.023 53.5317C171.56 54.0357 172.23 54.3743 172.954 54.5072C173.677 54.6401 174.424 54.5618 175.104 54.2815C175.608 54.106 176.041 53.7715 176.339 53.3282C176.638 52.8849 176.785 52.3565 176.759 51.8221C176.754 50.6524 176.748 49.5126 176.748 48.3729V48.3909Z" fill="white"/>
<path d="M217.407 50.1605C218.381 47.761 219.277 45.4995 220.18 43.2621C220.777 41.7744 221.405 40.2927 221.973 38.7931C222.343 37.8393 222.654 36.8615 222.97 35.8897C223.027 35.6768 223.046 35.4553 223.024 35.2359C223.033 34.8827 222.904 34.5401 222.665 34.2804C222.427 34.0208 222.097 33.8643 221.745 33.8442C221.494 33.8082 221.237 33.8442 220.981 33.7962C220.889 33.7901 220.803 33.7486 220.74 33.6805C220.678 33.6124 220.644 33.5228 220.646 33.4303C220.638 33.3765 220.642 33.3218 220.656 33.2694C220.67 33.217 220.695 33.1681 220.728 33.1255C220.762 33.0829 220.803 33.0475 220.851 33.0216C220.898 32.9956 220.951 32.9795 221.004 32.9744C221.19 32.9744 221.369 32.9744 221.554 32.9744H227.363C227.554 32.9744 227.727 33.0284 227.793 33.2383C227.808 33.3012 227.809 33.3665 227.797 33.43C227.785 33.4935 227.76 33.5538 227.724 33.6069C227.687 33.66 227.64 33.7049 227.585 33.7385C227.53 33.7722 227.468 33.7939 227.405 33.8022C226.239 33.8562 225.725 34.696 225.241 35.5658C224.671 36.7129 224.168 37.8927 223.735 39.099C222.911 41.0905 222.152 43.1061 221.345 45.0976C220.465 47.3691 219.578 49.6446 218.686 51.9241C218.154 53.2857 217.634 54.6534 217.114 56.0151C217.088 56.0846 217.058 56.1527 217.025 56.2191C216.99 56.2944 216.935 56.3583 216.866 56.403C216.796 56.4478 216.716 56.4716 216.633 56.4716C216.551 56.4716 216.47 56.4478 216.4 56.403C216.331 56.3583 216.276 56.2944 216.242 56.2191C215.967 55.7092 215.698 55.1813 215.459 54.6474C215.059 53.7476 214.7 52.8478 214.3 51.93C213.505 50.1305 212.68 48.4029 211.909 46.6333C211.198 45.0316 210.517 43.412 209.818 41.8044C209.471 41.0006 209.041 40.2327 208.718 39.4049C208.276 38.2832 207.738 37.2034 207.212 36.1117C207.006 35.6866 206.755 35.2845 206.465 34.912C206.274 34.5992 206.012 34.3361 205.701 34.1443C205.389 33.9525 205.037 33.8373 204.673 33.8082C204.565 33.7999 204.462 33.7626 204.374 33.7002C204.316 33.6546 204.273 33.5921 204.252 33.5212C204.23 33.4504 204.231 33.3747 204.254 33.3043C204.254 33.2084 204.344 33.0644 204.416 33.0464C204.623 32.9848 204.838 32.9525 205.055 32.9504H212.62C212.803 32.9423 212.986 32.9584 213.164 32.9984C213.25 33.031 213.322 33.0941 213.365 33.1759C213.408 33.2577 213.419 33.3525 213.397 33.4423C213.401 33.5157 213.379 33.5881 213.335 33.6472C213.292 33.7062 213.229 33.7483 213.158 33.7662C212.904 33.7993 212.649 33.8174 212.393 33.8202C212.1 33.8144 211.81 33.8759 211.545 34.0002C211.389 34.0558 211.255 34.1583 211.16 34.2936C211.064 34.4288 211.013 34.5904 211.013 34.756C210.981 35.1629 211.036 35.5718 211.174 35.9557C211.401 36.4896 211.563 37.0595 211.802 37.5933C212.59 39.3629 213.409 41.1145 214.192 42.8841C214.921 44.5218 215.614 46.1714 216.337 47.809C216.624 48.5348 216.977 49.2487 217.407 50.1605Z" fill="white"/>
<path d="M263.409 48.8947C263.409 50.1785 263.409 51.4622 263.409 52.7459C263.399 53.0013 263.419 53.257 263.469 53.5077C263.488 53.6551 263.542 53.7959 263.625 53.9188C263.708 54.0418 263.819 54.1434 263.949 54.2157C264.078 54.288 264.223 54.3288 264.371 54.3351C264.519 54.3413 264.666 54.3127 264.801 54.2515C265.076 54.1675 265.333 54.0176 265.608 53.9216C265.66 53.9073 265.716 53.9071 265.768 53.9209C265.821 53.9348 265.869 53.9621 265.907 54.0004C265.946 54.0386 265.974 54.0863 265.989 54.1388C266.003 54.1913 266.004 54.2467 265.99 54.2995C265.904 54.6912 265.695 55.0446 265.393 55.3073C264.795 55.8504 264.075 56.2413 263.295 56.447C262.812 56.5406 262.311 56.4742 261.868 56.2579C261.425 56.0416 261.064 55.687 260.839 55.2473C260.697 54.9503 260.594 54.6356 260.535 54.3115C260.525 54.2754 260.507 54.2422 260.482 54.2153C260.456 54.1883 260.424 54.1684 260.389 54.1575C260.353 54.1466 260.315 54.1452 260.279 54.1532C260.243 54.1613 260.21 54.1786 260.182 54.2035C260.003 54.3295 259.859 54.5035 259.686 54.6354C258.73 55.3673 257.66 55.9348 256.519 56.315C255.78 56.5317 254.989 56.4807 254.284 56.1711C253.823 56.0164 253.398 55.7715 253.033 55.4507C252.667 55.1298 252.369 54.7393 252.155 54.3019C251.941 53.8645 251.816 53.3888 251.786 52.9023C251.757 52.4159 251.824 51.9284 251.983 51.4682C252.443 49.9025 253.579 48.9727 254.911 48.2289C256.402 47.4541 257.936 46.7671 259.507 46.1714C259.674 46.1054 259.853 46.0514 260.015 45.9794C260.119 45.9401 260.209 45.8695 260.272 45.7772C260.335 45.6849 260.368 45.5754 260.367 45.4635C260.367 44.5877 260.403 43.6999 260.367 42.8242C260.289 42.4132 260.101 42.0313 259.823 41.7195C259.545 41.4078 259.188 41.1779 258.79 41.0545C258.091 40.8413 257.338 40.8926 256.674 41.1985C255.766 41.5165 255.431 42.1883 255.575 43.2021C255.616 43.484 255.784 43.7299 255.706 44.0539C255.655 44.441 255.466 44.7968 255.176 45.0566C254.885 45.3164 254.512 45.4629 254.122 45.4695C253.796 45.4726 253.479 45.3654 253.221 45.1652C252.963 44.9649 252.779 44.6834 252.7 44.3658C252.577 43.8885 252.586 43.3862 252.729 42.9142C252.871 42.4422 253.14 42.0188 253.507 41.6904C254.575 40.6223 256.015 40.0116 257.523 39.9868C257.815 39.9868 258.12 39.9868 258.401 39.9868C259.241 39.9427 260.08 40.0861 260.857 40.4067C261.5 40.6239 262.067 41.0222 262.491 41.554C262.915 42.0857 263.178 42.7286 263.248 43.406C263.403 44.3052 263.475 45.2169 263.463 46.1294C263.463 47.0472 263.463 47.965 263.463 48.8828L263.409 48.8947ZM260.558 49.7466C260.558 48.9427 260.558 48.1389 260.558 47.3471C260.558 46.9452 260.367 46.8072 260.003 46.9272C258.672 47.3287 257.428 47.9756 256.333 48.8348C255.76 49.261 255.332 49.8541 255.106 50.5335C254.88 51.2129 254.869 51.9456 255.073 52.6319C255.15 52.9229 255.283 53.1957 255.466 53.4346C255.648 53.6735 255.876 53.8738 256.136 54.0238C256.396 54.1739 256.683 54.2707 256.981 54.3087C257.278 54.3468 257.58 54.3253 257.869 54.2455C258.325 54.1195 258.772 53.9653 259.208 53.7836C259.626 53.6401 259.986 53.3629 260.232 52.9945C260.478 52.6261 260.597 52.1869 260.57 51.7441C260.517 51.0662 260.558 50.4064 260.558 49.7466Z" fill="white"/>
<path d="M191.556 54.2155C190.958 54.6114 190.42 54.9654 189.888 55.3493C189.221 55.7959 188.481 56.1208 187.701 56.3091C187.073 56.492 186.405 56.492 185.777 56.3091C185.075 56.1671 184.437 55.8035 183.955 55.2715C183.473 54.7394 183.174 54.0668 183.1 53.3517C182.985 52.5228 183.095 51.6782 183.418 50.9067C183.741 50.1351 184.265 49.465 184.934 48.9667C186.257 48.1223 187.658 47.4091 189.117 46.8372C189.787 46.5433 190.456 46.2374 191.143 46.0154C191.321 45.9751 191.476 45.8667 191.576 45.7131C191.675 45.5596 191.711 45.3732 191.675 45.1936C191.651 44.718 191.651 44.2415 191.675 43.7659C191.677 43.2523 191.574 42.7437 191.37 42.2723C191.273 41.9935 191.108 41.7432 190.892 41.5434C190.675 41.3436 190.412 41.2004 190.127 41.1265C189.41 40.8363 188.609 40.8363 187.892 41.1265C187.754 41.1741 187.62 41.2343 187.492 41.3065C187.179 41.4608 186.931 41.7216 186.792 42.0424C186.653 42.3632 186.632 42.7232 186.733 43.0581C186.821 43.3182 186.854 43.5938 186.83 43.8674C186.807 44.141 186.727 44.4067 186.596 44.6477C186.476 44.8556 186.314 45.0351 186.119 45.1739C185.924 45.3126 185.701 45.4074 185.466 45.4515C185.124 45.5261 184.766 45.4672 184.465 45.2867C184.165 45.1063 183.944 44.8178 183.847 44.4798C183.67 43.9894 183.67 43.4525 183.847 42.9621C184.132 42.1213 184.718 41.4162 185.49 40.9826C186.186 40.5719 186.942 40.2762 187.731 40.1068C189.416 39.8848 191.06 39.8608 192.637 40.7066C193.024 40.9122 193.366 41.1932 193.643 41.5331C193.92 41.873 194.127 42.265 194.251 42.6862C194.453 43.2762 194.548 43.8979 194.532 44.5218C194.502 47.0892 194.532 49.6566 194.532 52.224C194.518 52.7007 194.597 53.1754 194.765 53.6217C194.795 53.7574 194.857 53.8841 194.944 53.9922C195.031 54.1002 195.142 54.1866 195.268 54.2446C195.394 54.3026 195.532 54.3307 195.671 54.3267C195.809 54.3227 195.945 54.2867 196.067 54.2215C196.205 54.1675 196.336 54.0956 196.468 54.0356C196.599 53.9756 196.892 53.8256 197.065 54.0356C197.145 54.1397 197.185 54.2692 197.177 54.4003C197.169 54.5314 197.115 54.6554 197.023 54.7494C196.683 55.2291 196.24 55.6266 195.727 55.9131C195.4 56.0705 195.064 56.2106 194.723 56.333C194.461 56.4425 194.179 56.4965 193.895 56.4917C193.611 56.4869 193.331 56.4234 193.072 56.3052C192.814 56.187 192.582 56.0167 192.392 55.8047C192.202 55.5928 192.058 55.3438 191.968 55.0733C191.899 54.759 191.758 54.4652 191.556 54.2155ZM191.669 49.7826V49.1047C191.669 48.5048 191.669 47.863 191.669 47.2391C191.676 47.1745 191.666 47.1092 191.639 47.05C191.612 46.9909 191.57 46.9402 191.516 46.9032C191.463 46.8663 191.401 46.8446 191.336 46.8404C191.271 46.8361 191.207 46.8496 191.149 46.8792C190.773 47.0172 190.396 47.1612 190.032 47.3231C188.949 47.7708 187.965 48.427 187.134 49.2547C186.662 49.7205 186.342 50.3195 186.217 50.9719C186.092 51.6244 186.168 52.2996 186.434 52.9078C186.617 53.3946 186.97 53.7975 187.428 54.0406C187.886 54.2837 188.417 54.3502 188.92 54.2275C189.522 54.0915 190.107 53.8904 190.665 53.6277C190.991 53.5022 191.268 53.2731 191.452 52.9753C191.637 52.6775 191.719 52.3273 191.687 51.9781C191.651 51.2522 191.669 50.5204 191.669 49.7826Z" fill="white"/>
<path d="M162.71 48.6428V52.4939C162.692 52.7495 162.692 53.0061 162.71 53.2617C162.806 54.0536 163.147 54.3415 163.947 54.3175C164.2 54.2922 164.452 54.2521 164.7 54.1975C164.969 54.1555 165.089 54.2695 165.107 54.5514C165.124 54.6972 165.108 54.845 165.059 54.9833C165.01 55.1217 164.931 55.2469 164.826 55.3493C164.394 55.8006 163.86 56.1393 163.268 56.3358C162.676 56.5324 162.046 56.5808 161.432 56.477C161.172 56.4444 160.925 56.3442 160.715 56.1864C160.505 56.0286 160.34 55.8186 160.236 55.5772C160.16 55.4109 160.092 55.2407 160.033 55.0673C159.77 54.3115 159.669 54.2035 159.023 54.7434C158.208 55.4797 157.244 56.0301 156.197 56.357C155.55 56.555 154.866 56.599 154.199 56.4855C153.532 56.372 152.9 56.1042 152.354 55.7032C152.089 55.5055 151.865 55.2567 151.697 54.9714C151.235 54.1612 151.043 53.2236 151.151 52.2962C151.258 51.3689 151.659 50.5005 152.294 49.8185C153.253 48.9227 154.364 48.2074 155.575 47.707C156.806 47.1552 158.061 46.6573 159.31 46.1534C159.573 46.0454 159.776 45.8954 159.776 45.6135C159.776 44.6297 159.926 43.64 159.579 42.6742C159.468 42.2849 159.249 41.9353 158.948 41.6665C158.646 41.3977 158.274 41.2208 157.876 41.1565C157.398 41.0252 156.894 41.0243 156.416 41.154C155.938 41.2837 155.503 41.5393 155.157 41.8944C155.026 42.0203 154.922 42.1722 154.852 42.3405C154.782 42.5088 154.747 42.6898 154.751 42.8721C154.751 43.424 154.751 43.9759 154.751 44.5218C154.756 44.6867 154.712 44.8494 154.624 44.9893C154.537 45.1292 154.411 45.24 154.261 45.3076C153.328 45.8475 152.737 45.7455 152.085 44.9057C151.92 44.7118 151.812 44.4755 151.773 44.2234C151.734 43.9712 151.765 43.7131 151.864 43.478C152.041 42.9192 152.327 42.4018 152.707 41.9566C153.087 41.5113 153.552 41.1475 154.075 40.8866C154.799 40.4534 155.623 40.2177 156.466 40.2028C156.647 40.1906 156.826 40.1543 156.997 40.0948C157.135 40.0428 157.281 40.0183 157.428 40.0228C158.45 40.2327 159.525 40.1848 160.499 40.6706C160.932 40.8711 161.318 41.1588 161.635 41.5159C161.952 41.873 162.192 42.2918 162.34 42.7462C162.551 43.3327 162.658 43.952 162.657 44.5758C162.657 45.9314 162.657 47.2871 162.657 48.6428H162.71ZM159.86 50.0225C159.86 49.2127 159.86 48.4089 159.86 47.623C159.86 47.1492 159.591 46.9692 159.143 47.1252C158.733 47.2588 158.333 47.4232 157.948 47.617C156.949 48.0635 156.031 48.6714 155.229 49.4166C154.777 49.9447 154.487 50.593 154.395 51.2829C154.303 51.9728 154.412 52.6748 154.709 53.3037C154.804 53.5615 154.965 53.7902 155.174 53.9678C155.383 54.1454 155.635 54.2658 155.904 54.3175C157.032 54.5004 158.188 54.2406 159.131 53.5917C159.369 53.4582 159.566 53.2607 159.699 53.0212C159.832 52.7818 159.896 52.5099 159.884 52.236C159.824 51.5042 159.86 50.7543 159.86 50.0225Z" fill="white"/>
<path d="M134.427 47.905C134.518 49.9544 133.859 51.9665 132.574 53.5617C132.031 54.3334 131.328 54.978 130.513 55.4512C129.698 55.9244 128.791 56.215 127.853 56.3031C127.674 56.3031 127.501 56.387 127.322 56.411C127.075 56.471 126.822 56.4992 126.569 56.495C124.744 56.3733 123.001 55.6882 121.579 54.5335C121.073 54.0572 120.647 53.5022 120.318 52.8898C119.44 51.4066 118.989 49.7081 119.015 47.983C119.033 45.8462 119.809 43.7857 121.202 42.1703C121.561 41.7556 121.993 41.41 122.475 41.1505C123.675 40.3705 125.073 39.954 126.503 39.9508C127.559 39.9596 128.607 40.1316 129.61 40.4607C131.219 40.9899 132.56 42.1255 133.351 43.628C134.128 44.9134 134.503 46.4034 134.427 47.905ZM122.386 46.7053C122.323 47.8254 122.421 48.9487 122.678 50.0405C122.914 51.1869 123.329 52.2884 123.909 53.3037C124.284 54.0812 124.925 54.6974 125.715 55.0399C126.505 55.3824 127.391 55.4283 128.212 55.1693C128.863 55.0288 129.442 54.6584 129.843 54.1255C130.287 53.4554 130.641 52.7293 130.895 51.966C131.224 50.9883 131.021 49.9325 131.313 48.9667C131.327 48.7852 131.301 48.6029 131.236 48.4329C131.188 48.2574 131.152 48.0791 131.128 47.899C131.083 46.6223 130.795 45.3661 130.28 44.1978C130.062 43.5776 129.722 43.0079 129.279 42.5234C128.837 42.0388 128.301 41.6493 127.704 41.3785C126.966 41.044 126.132 40.9865 125.356 41.2165C124.775 41.3951 124.242 41.704 123.798 42.1197C123.354 42.5354 123.01 43.0471 122.792 43.616C122.396 44.5942 122.246 45.6552 122.356 46.7053H122.386Z" fill="white"/>
<path d="M231.157 47.0772C231.157 49.1347 231.157 51.1862 231.157 53.2378C231.142 53.5491 231.197 53.8598 231.317 54.1472C231.437 54.4347 231.619 54.6917 231.851 54.8994C232.206 55.1551 232.615 55.3255 233.046 55.3972C233.213 55.4512 233.41 55.4273 233.578 55.4872C233.621 55.5154 233.657 55.5535 233.683 55.5983C233.709 55.6431 233.724 55.6934 233.727 55.7452C233.721 55.7968 233.704 55.8465 233.676 55.8902C233.648 55.9339 233.61 55.9705 233.566 55.9971C233.43 56.0486 233.286 56.0731 233.141 56.0691H226.132C225.986 56.0766 225.84 56.0563 225.701 56.0091C225.655 55.9858 225.615 55.952 225.584 55.9103C225.553 55.8687 225.531 55.8204 225.522 55.7692C225.518 55.7172 225.528 55.6651 225.55 55.6178C225.572 55.5706 225.606 55.5298 225.648 55.4992C225.993 55.3843 226.344 55.2882 226.699 55.2113C227.763 54.9833 227.823 54.7794 228.08 53.6637C228.095 53.5181 228.095 53.3713 228.08 53.2257V43.9879C228.109 43.6214 228.043 43.2535 227.889 42.9201C227.825 42.7689 227.717 42.6405 227.58 42.5517C227.442 42.4628 227.281 42.4177 227.118 42.4222C226.676 42.4222 226.239 42.4222 225.803 42.4222C225.701 42.4222 225.564 42.3802 225.564 42.2423C225.56 42.1386 225.596 42.0373 225.666 41.9603C225.835 41.824 226.025 41.7147 226.227 41.6364C227.602 41.1485 228.978 40.6686 230.357 40.1967C230.489 40.1414 230.627 40.1012 230.769 40.0768C230.805 40.068 230.842 40.0667 230.878 40.073C230.915 40.0792 230.949 40.0929 230.98 40.1132C231.011 40.1334 231.037 40.1598 231.057 40.1907C231.078 40.2216 231.091 40.2563 231.098 40.2927C231.135 40.5831 231.151 40.8758 231.145 41.1685C231.145 43.1481 231.145 45.1276 231.145 47.1012L231.157 47.0772Z" fill="white"/>
<path d="M231.157 35.4818C231.165 35.7252 231.125 35.9677 231.039 36.1954C230.953 36.423 230.823 36.6313 230.656 36.8081C230.49 36.985 230.29 37.1268 230.068 37.2256C229.846 37.3243 229.607 37.378 229.365 37.3834C228.408 37.4374 227.518 36.3576 227.494 35.4638C227.47 34.5701 228.504 33.6643 229.371 33.6283C229.833 33.6896 230.261 33.9061 230.586 34.2426C230.91 34.5791 231.112 35.0159 231.157 35.4818Z" fill="white"/>
</svg>
